<?xml version="1.0" encoding="UTF-8"?>
<svg version="1.1" xmlns="http://www.w3.org/2000/svg" width="340" height="74">
<path d="M0 0 C4.95 0 9.9 0 15 0 C16.88543377 6.93024306 18.02809932 13.90670896 19.125 21 C19.30675781 22.15628906 19.48851563 23.31257813 19.67578125 24.50390625 C20.12040392 27.3354506 20.56172305 30.16746773 21 33 C21.99 32.505 21.99 32.505 23 32 C23.74070779 29.14260217 23.74070779 29.14260217 24.25390625 25.6640625 C24.46853516 24.37242188 24.68316406 23.08078125 24.90429688 21.75 C25.12412235 20.37506779 25.34351865 19.0000669 25.5625 17.625 C25.9976924 14.9499119 26.4380938 12.27573592 26.87890625 9.6015625 C27.0704126 8.40869629 27.26191895 7.21583008 27.45922852 5.98681641 C28 3 28 3 29 0 C37.91 0 46.82 0 56 0 C58.06341389 5.15853474 59.10745447 9.94809049 60.125 15.375 C60.30675781 16.29539062 60.48851562 17.21578125 60.67578125 18.1640625 C61.63291042 23.20158444 62.21183577 27.87357438 62 33 C62.99 33 63.98 33 65 33 C65.185625 31.14375 65.185625 31.14375 65.375 29.25 C66.019424 23.45926037 66.99644452 17.73771937 68 12 C68.26683594 10.42798828 68.26683594 10.42798828 68.5390625 8.82421875 C68.71179688 7.83035156 68.88453125 6.83648437 69.0625 5.8125 C69.29646484 4.46091797 69.29646484 4.46091797 69.53515625 3.08203125 C70 1 70 1 71 0 C73.53049402 -0.07313567 76.03304837 -0.09247527 78.5625 -0.0625 C79.62887695 -0.05573242 79.62887695 -0.05573242 80.71679688 -0.04882812 C82.47790013 -0.03700864 84.23896036 -0.01907263 86 0 C85.0341524 10.57436597 83.12914587 20.91909609 81 31.3125 C80.73880371 32.60631592 80.47760742 33.90013184 80.20849609 35.2331543 C79.82685303 37.06100464 79.82685303 37.06100464 79.4375 38.92578125 C79.20933594 40.02317627 78.98117188 41.12057129 78.74609375 42.2512207 C78 45 78 45 76 48 C73.50976563 48.35644531 73.50976563 48.35644531 70.40625 48.328125 C68.73755859 48.32039063 68.73755859 48.32039063 67.03515625 48.3125 C65.86855469 48.291875 64.70195312 48.27125 63.5 48.25 C62.33339844 48.24484375 61.16679687 48.2396875 59.96484375 48.234375 C51.30825708 48.15412854 51.30825708 48.15412854 49 47 C48.31396484 44.18017578 48.31396484 44.18017578 47.7109375 40.4453125 C47.60278717 39.78796112 47.49463684 39.13060974 47.38320923 38.45333862 C47.15562446 37.06022082 46.93230375 35.66640083 46.71289062 34.27197266 C46.37727147 32.13943303 46.02971172 30.00912408 45.6796875 27.87890625 C44 17.52494758 44 17.52494758 44 14 C43.34 14.33 42.68 14.66 42 15 C41.27596304 17.84138347 41.27596304 17.84138347 40.78125 21.30078125 C40.57113281 22.58791016 40.36101562 23.87503906 40.14453125 25.20117188 C39.92888034 26.5714878 39.71404495 27.9419323 39.5 29.3125 C39.08066319 31.9766527 38.65200277 34.63880184 38.21875 37.30078125 C38.03248047 38.48841064 37.84621094 39.67604004 37.65429688 40.8996582 C37.07903545 43.62549582 36.39449384 45.61307172 35 48 C30.87501462 48.02892385 26.75005515 48.04677267 22.625 48.0625 C20.8615625 48.07506836 20.8615625 48.07506836 19.0625 48.08789062 C17.94101563 48.09111328 16.81953125 48.09433594 15.6640625 48.09765625 C14.10872803 48.10551147 14.10872803 48.10551147 12.52197266 48.11352539 C10 48 10 48 8 47 C7.36157227 44.953125 7.36157227 44.953125 6.81640625 42.25 C6.61233154 41.25661621 6.40825684 40.26323242 6.19799805 39.23974609 C5.98828369 38.17062988 5.77856934 37.10151367 5.5625 36 C5.34440674 34.9167041 5.12631348 33.8334082 4.90161133 32.71728516 C4.25544136 29.4804545 3.62426836 26.24112012 3 23 C2.82758789 22.10764648 2.65517578 21.21529297 2.47753906 20.29589844 C1.17461599 13.47248216 0 6.9821587 0 0 Z " fill="#8B51FE" transform="translate(96,23)"/>
<path d="M0 0 C1.39456452 0.00667256 2.78911118 0.01863093 4.18359375 0.03515625 C5.2499707 0.04192383 5.2499707 0.04192383 6.33789062 0.04882812 C8.09899388 0.06064761 9.86005411 0.07858362 11.62109375 0.09765625 C12.90352448 23.08980725 12.72138281 46.07900334 12.62109375 69.09765625 C9.76914153 70.52363236 7.296482 70.22968145 4.12109375 70.22265625 C2.95578125 70.22523437 1.79046875 70.2278125 0.58984375 70.23046875 C-2.37890625 70.09765625 -2.37890625 70.09765625 -4.37890625 69.09765625 C-3.92068157 65.62824079 -3.48758942 62.42370576 -2.37890625 59.09765625 C-3.03890625 59.09765625 -3.69890625 59.09765625 -4.37890625 59.09765625 C-4.60578125 59.84015625 -4.83265625 60.58265625 -5.06640625 61.34765625 C-7.33674537 66.10455727 -10.85055397 68.06719665 -15.62890625 69.91015625 C-21.27603546 71.60523152 -26.09081136 71.47806365 -31.546875 69.1875 C-37.74447696 65.75730755 -41.16291442 60.74563174 -43.37890625 54.09765625 C-43.97013826 43.87616446 -44.00637415 35.59067906 -38.19140625 26.78515625 C-33.44764312 22.25222704 -28.81290508 20.95961061 -22.31640625 20.72265625 C-16.72169379 20.94507601 -12.47607058 22.00462019 -8.39453125 26.078125 C-6.65744682 28.0410304 -4.99261867 30.03269294 -3.37890625 32.09765625 C-3.62229736 31.05013184 -3.62229736 31.05013184 -3.87060547 29.98144531 C-4.41120096 26.91443574 -4.50839563 24.07032054 -4.51171875 20.95703125 C-4.51300781 19.80460937 -4.51429688 18.6521875 -4.515625 17.46484375 C-4.51175781 16.27117188 -4.50789063 15.0775 -4.50390625 13.84765625 C-4.50970703 12.03394531 -4.50970703 12.03394531 -4.515625 10.18359375 C-4.51433594 9.03632813 -4.51304687 7.8890625 -4.51171875 6.70703125 C-4.51059082 5.65483398 -4.50946289 4.60263672 -4.50830078 3.51855469 C-4.30586731 -0.26886102 -3.91700787 0.11320832 0 0 Z M-25.37890625 38.09765625 C-27.84432928 40.9918485 -27.79055694 44.39809193 -27.70703125 48.12890625 C-27.18837858 51.24082229 -25.59335851 52.94833494 -23.37890625 55.09765625 C-19.69204502 56.94108687 -15.41192958 56.45332445 -11.37890625 56.09765625 C-8.38899837 54.8518613 -6.98624956 53.90744733 -5.06640625 51.34765625 C-3.76308386 47.0822375 -3.86874206 43.44809087 -5.44140625 39.28515625 C-8.10927762 36.27304342 -10.48198862 35.84969299 -14.37890625 35.09765625 C-18.90261534 35.09765625 -21.38795803 36.02827569 -25.37890625 38.09765625 Z " fill="#8B51FE" transform="translate(279.37890625,0.90234375)"/>
<path d="M0 0 C5.12793331 3.89622384 7.26661776 8.69226646 8.21875 14.8984375 C8.28649144 17.51325708 8.31375258 20.09823006 8.28125 22.7109375 C8.27673828 23.40380859 8.27222656 24.09667969 8.26757812 24.81054688 C8.25588156 26.50654818 8.23794924 28.20250453 8.21875 29.8984375 C10.19875 29.8984375 12.17875 29.8984375 14.21875 29.8984375 C14.21875 34.5184375 14.21875 39.1384375 14.21875 43.8984375 C10.03601356 45.98980572 4.67027365 45.29992276 0.28125 44.0859375 C-1.78125 42.8984375 -1.78125 42.8984375 -3.78125 39.8984375 C-3.40625 36.2109375 -3.40625 36.2109375 -2.78125 32.8984375 C-3.19375 33.4553125 -3.60625 34.0121875 -4.03125 34.5859375 C-4.60875 35.3490625 -5.18625 36.1121875 -5.78125 36.8984375 C-6.379375 37.7440625 -6.9775 38.5896875 -7.59375 39.4609375 C-12.1713127 44.56165023 -17.36566239 45.52455972 -23.9609375 45.96484375 C-29.37340212 45.83740345 -33.74199171 44.25794302 -38.21875 41.2734375 C-40.96845933 37.09387932 -42.2356231 32.63414218 -41.40625 27.640625 C-40.26714105 24.13268721 -39.3039013 22.30047696 -36.34375 20.0234375 C-35.0753125 19.4665625 -35.0753125 19.4665625 -33.78125 18.8984375 C-32.46125 18.2384375 -31.14125 17.5784375 -29.78125 16.8984375 C-33.08125 16.5684375 -36.38125 16.2384375 -39.78125 15.8984375 C-40.07796405 10.85429867 -39.96004728 7.89756957 -36.78125 3.8984375 C-27.21880172 -6.03464831 -11.76181317 -7.27375288 0 0 Z M-24.78125 11.8984375 C-24.78125 13.2184375 -24.78125 14.5384375 -24.78125 15.8984375 C-19.50125 15.2384375 -14.22125 14.5784375 -8.78125 13.8984375 C-9.44125 12.5784375 -10.10125 11.2584375 -10.78125 9.8984375 C-12.55174689 9.84433063 -14.32271849 9.80559631 -16.09375 9.7734375 C-17.07988281 9.75023437 -18.06601563 9.72703125 -19.08203125 9.703125 C-22.00531527 9.69161111 -22.00531527 9.69161111 -24.78125 11.8984375 Z M-19.03125 25.3984375 C-20.64773437 25.81609375 -20.64773437 25.81609375 -22.296875 26.2421875 C-23.11671875 26.45875 -23.9365625 26.6753125 -24.78125 26.8984375 C-24.45125 28.2184375 -24.12125 29.5384375 -23.78125 30.8984375 C-18.24353255 31.18487116 -14.53321173 31.14367966 -9.78125 27.8984375 C-8.82080898 25.82153172 -8.82080898 25.82153172 -8.78125 23.8984375 C-12.58092569 23.8984375 -15.38162637 24.44636177 -19.03125 25.3984375 Z " fill="#8B50FE" transform="translate(84.78125,26.1015625)"/>
<path d="M0 0 C3.79034894 3.02751141 6.31070323 6.02055638 7.92578125 10.67578125 C7.96774977 13.00873712 7.97260378 15.34291775 7.92578125 17.67578125 C5.486439 17.81080019 3.05454021 17.90982022 0.61328125 17.98828125 C-0.07701172 18.03017578 -0.76730469 18.07207031 -1.47851562 18.11523438 C-3.5 18.1640625 -3.5 18.1640625 -7.07421875 17.67578125 C-8.9140625 15.2421875 -8.9140625 15.2421875 -10.07421875 12.67578125 C-13.17416767 10.78136802 -14.98196923 10.67254442 -18.63671875 10.80078125 C-22.53358272 11.79271026 -23.94265811 12.26528422 -26.07421875 15.67578125 C-27.01898441 20.44417394 -26.75051816 23.64019778 -24.07421875 27.73828125 C-20.7470659 29.88706747 -18.89421796 30.40743527 -15.0078125 30.1796875 C-11.75968557 29.33320594 -10.11788674 27.2148839 -8.07421875 24.67578125 C-7.07421875 23.67578125 -7.07421875 23.67578125 -3.6953125 23.578125 C-2.30074798 23.58479756 -0.90620132 23.59675593 0.48828125 23.61328125 C1.5546582 23.62004883 1.5546582 23.62004883 2.64257812 23.62695312 C4.40368138 23.63877261 6.16474161 23.65670862 7.92578125 23.67578125 C8.15901712 30.98383849 6.30124609 33.83842047 1.67578125 39.36328125 C-4.56969758 44.61516117 -12.06655056 45.67578125 -20.07421875 45.67578125 C-26.89355776 44.98192164 -33.09785788 42.96760894 -37.76953125 37.80078125 C-42.4548218 31.46319016 -44.44699093 24.84985905 -43.87890625 16.96484375 C-42.67856688 9.69733446 -39.74764351 4.36799794 -33.82421875 -0.22265625 C-23.92140469 -6.45612403 -9.8506843 -6.28885495 0 0 Z " fill="#8B51FE" transform="translate(225.07421875,26.32421875)"/>
<path d="M0 0 C1.17691406 -0.00128906 2.35382812 -0.00257812 3.56640625 -0.00390625 C5.41298828 0.00189453 5.41298828 0.00189453 7.296875 0.0078125 C8.51246094 0.00394531 9.72804688 0.00007813 10.98046875 -0.00390625 C16.76831857 0.00240547 22.34996655 0.0709627 28.046875 1.1328125 C28.046875 5.7528125 28.046875 10.3728125 28.046875 15.1328125 C20.456875 15.1328125 12.866875 15.1328125 5.046875 15.1328125 C5.046875 26.0228125 5.046875 36.9128125 5.046875 48.1328125 C-2.92271959 49.27132601 -2.92271959 49.27132601 -6.828125 49.2578125 C-7.58867188 49.26039062 -8.34921875 49.26296875 -9.1328125 49.265625 C-10.953125 49.1328125 -10.953125 49.1328125 -11.953125 48.1328125 C-12.07922774 45.08876877 -12.14183562 42.0686966 -12.15625 39.0234375 C-12.16195007 38.10447693 -12.16765015 37.18551636 -12.17352295 36.2387085 C-12.18299035 34.28838254 -12.1895138 32.33804046 -12.19335938 30.38769531 C-12.20303918 27.40921844 -12.23403533 24.43143896 -12.265625 21.453125 C-12.27215737 19.55989994 -12.27740692 17.66666993 -12.28125 15.7734375 C-12.2935968 14.88368225 -12.3059436 13.993927 -12.31866455 13.07720947 C-12.30160709 8.31840802 -12.17849936 4.92503648 -8.953125 1.1328125 C-5.73159112 0.05896787 -3.38650339 0.00356689 0 0 Z " fill="#8C52FE" transform="translate(14.953125,21.8671875)"/>
<path d="M0 0 C1.17691406 -0.00128906 2.35382813 -0.00257812 3.56640625 -0.00390625 C5.41298828 0.00189453 5.41298828 0.00189453 7.296875 0.0078125 C8.51246094 0.00394531 9.72804688 0.00007813 10.98046875 -0.00390625 C16.76831857 0.00240547 22.34996655 0.0709627 28.046875 1.1328125 C28.046875 5.7528125 28.046875 10.3728125 28.046875 15.1328125 C20.126875 15.1328125 12.206875 15.1328125 4.046875 15.1328125 C4.14226562 17.41960938 4.23765625 19.70640625 4.3359375 22.0625 C4.42109833 24.27319129 4.50271401 26.4839869 4.58398438 28.69482422 C4.64244759 30.23338118 4.70460585 31.7718023 4.77050781 33.31005859 C4.86450337 35.51895415 4.94527586 37.72799463 5.0234375 39.9375 C5.07173203 40.97195755 5.07173203 40.97195755 5.1210022 42.02731323 C5.17457748 43.72848227 5.1195532 45.43235248 5.046875 47.1328125 C3.046875 49.1328125 3.046875 49.1328125 0.078125 49.36328125 C-1.0871875 49.34910156 -2.2525 49.33492187 -3.453125 49.3203125 C-4.6184375 49.31386719 -5.78375 49.30742188 -6.984375 49.30078125 C-9.953125 49.1328125 -9.953125 49.1328125 -11.953125 48.1328125 C-12.02738139 42.24294787 -12.08177768 36.35335684 -12.11791992 30.46313477 C-12.13298965 28.46015678 -12.1534491 26.4572117 -12.17944336 24.4543457 C-12.21590627 21.57234569 -12.23286961 18.69078266 -12.24609375 15.80859375 C-12.26157761 14.91570145 -12.27706146 14.02280914 -12.29301453 13.1028595 C-12.29430075 8.33192538 -12.19341387 4.93329173 -8.953125 1.1328125 C-5.73159112 0.05896787 -3.38650339 0.00356689 0 0 Z " fill="#8B51FE" transform="translate(308.953125,21.8671875)"/>
</svg>
